<svg width="600" height="120" viewBox="0 0 600 120" fill="none" xmlns="http://www.w3.org/2000/svg">
  <defs>
    <linearGradient id="abstergo-gold-left" x1="20" y1="90" x2="50" y2="10" gradientUnits="userSpaceOnUse">
      <stop offset="0%" stop-color="#8C6D46" />
      <stop offset="35%" stop-color="#C5A880" />
      <stop offset="70%" stop-color="#E5D1B8" />
      <stop offset="100%" stop-color="#C5A880" />
    </linearGradient>

    <linearGradient id="abstergo-gold-right" x1="50" y1="10" x2="85" y2="90" gradientUnits="userSpaceOnUse">
      <stop offset="0%" stop-color="#E5D1B8" />
      <stop offset="40%" stop-color="#D4AF37" />
      <stop offset="70%" stop-color="#C5A880" />
      <stop offset="100%" stop-color="#7E6038" />
    </linearGradient>
  </defs>

  <!-- Emblem Container Box -->
  <rect x="10" y="15" width="90" height="90" rx="22" fill="#121316"/>

  <!-- Logo Mark Group -->
  <g transform="translate(18, 20) scale(0.74)">
    <!-- Left Ribbon -->
    <path d="M 50 14 C 45 14, 38 22, 33 34 C 26 49, 18 70, 16 86 C 21 86, 28 84, 36 78 C 41 68, 45 56, 47 48 C 44 48, 41 48, 41 40 C 47 40, 48 30, 50 14 Z" fill="url(#abstergo-gold-left)" />
    <!-- Right Ribbon -->
    <path d="M 50 14 C 55 14, 62 22, 67 34 C 74 49, 82 70, 84 86 C 79 86, 72 83, 64 76 C 58 65, 54 53, 53 48 C 56 48, 59 48, 59 40 C 53 40, 52 30, 50 14 Z" fill="url(#abstergo-gold-right)" />
    <!-- Center Medical Cross -->
    <path d="M 45 36 H 55 V 44 H 63 V 52 H 55 V 64 H 45 V 52 H 37 V 44 H 45 Z" fill="#FDFCFB" />
  </g>

  <!-- Brand Typography -->
  <text x="125" y="60" font-family="'Cinzel', 'Playfair Display', Georgia, serif" font-size="36" font-weight="700" letter-spacing="0.18em" fill="#121316">ABSTERGO</text>
  <text x="127" y="85" font-family="'Inter', -apple-system, sans-serif" font-size="12" font-weight="600" letter-spacing="0.26em" fill="#C5A880">CLINICAL WEB ARCHITECTURE</text>
</svg>
